<?xml version="1.0" encoding="UTF-8" standalone="no"?><!DOCTYPE svg PUBLIC "-//W3C//DTD SVG 1.1//EN" "http://www.w3.org/Graphics/SVG/1.1/DTD/svg11.dtd"><svg width="100%" height="100%" viewBox="0 0 1667 1667" version="1.1" xmlns="http://www.w3.org/2000/svg" xmlns:xlink="http://www.w3.org/1999/xlink" xml:space="preserve" xmlns:serif="http://www.serif.com/" style="fill-rule:evenodd;clip-rule:evenodd;stroke-linejoin:round;stroke-miterlimit:2;"><path d="M641.028,25.709c-150.456,36.426 -297.745,123.532 -411.774,243.897c-110.863,117.197 -171.045,229.643 -207.471,383.267c-96.609,408.607 136.202,828.3 538.474,970.838c136.202,47.512 364.262,53.847 500.464,14.253c286.659,-83.938 517.886,-324.668 584.403,-608.159c68.102,-289.826 -28.507,-606.575 -243.897,-804.544c-209.055,-190.05 -492.545,-264.486 -760.199,-199.552Zm302.496,102.943c38.01,19.005 91.857,61.767 120.365,96.609c41.177,52.264 55.431,60.182 90.273,52.264c53.848,-14.254 55.432,-17.422 25.34,-63.35c-33.258,-50.68 -23.756,-49.096 55.432,3.167l64.933,42.761l-61.766,17.422c-88.69,26.923 -250.232,112.446 -384.851,204.303c-64.933,44.345 -136.202,83.939 -158.374,88.69c-20.589,4.751 -49.097,28.508 -63.35,53.848c-12.67,25.339 -47.513,68.101 -74.437,93.441c-28.507,25.34 -80.771,79.187 -115.613,121.948l-63.35,76.02l38.01,25.34c38.01,23.756 41.177,22.173 152.04,-91.857c71.268,-72.853 129.867,-120.365 158.374,-125.116c28.508,-6.335 49.097,-23.757 57.015,-45.929c12.67,-41.178 20.589,-49.096 172.629,-150.456c131.451,-88.69 283.491,-158.375 370.597,-172.629c58.599,-9.502 64.934,-6.335 64.934,22.173c-0,17.421 -11.087,57.015 -23.757,88.69c-23.756,57.015 -19.005,167.877 7.919,167.877c6.335,0 31.675,-38.01 55.431,-82.355l45.929,-83.939l39.594,87.107c30.091,68.101 39.593,117.197 42.761,221.724c1.584,74.436 -0,112.446 -4.751,87.106c-7.919,-50.679 -45.929,-102.943 -74.436,-102.943c-7.919,-0 -36.427,-19.005 -60.183,-42.761l-44.345,-42.762l0,63.35c0,99.776 26.924,174.213 71.269,193.218c25.34,11.086 44.345,39.593 55.431,80.771c28.507,107.695 -19.005,177.38 -152.04,216.973c-98.192,28.508 -264.486,28.508 -321.501,-1.583c-25.34,-12.67 -69.685,-22.173 -98.192,-20.589c-76.02,1.584 -294.577,-87.106 -429.196,-175.796c-201.136,-131.451 -345.257,-308.831 -345.257,-426.028c0,-63.35 50.68,-121.949 131.451,-153.624c50.68,-19.005 72.853,-38.01 87.106,-74.436l17.422,-47.513l-55.432,7.919c-69.684,11.086 -60.182,-4.751 60.183,-93.441c96.609,-71.269 147.288,-91.857 104.527,-42.761c-33.258,38.01 -98.192,171.045 -123.532,250.232c-11.086,34.842 -34.843,79.187 -52.264,99.776c-28.507,31.675 -31.675,42.761 -15.837,83.939c11.086,26.923 14.253,82.355 9.502,126.7c-11.086,95.024 14.254,140.953 58.599,101.359c15.837,-14.253 31.675,-55.431 36.426,-91.857c4.751,-36.426 20.589,-90.274 34.843,-117.197c17.421,-36.426 20.588,-60.183 11.086,-79.188c-15.838,-26.923 15.837,-140.953 66.517,-240.729c64.934,-125.116 210.639,-237.563 308.831,-239.146c22.173,-0 69.685,14.253 107.695,33.258Zm-715.854,804.544c115.613,126.7 356.343,275.573 554.312,342.09c44.345,14.254 95.025,41.177 114.03,58.599c25.339,23.756 47.512,30.091 79.187,23.756c23.756,-6.335 125.116,-12.67 224.892,-14.254l178.964,-4.751l-63.35,55.431c-34.843,30.091 -85.523,69.685 -115.614,85.522l-52.264,30.092l34.843,-55.432c44.345,-71.268 44.345,-76.019 -12.67,-76.019c-34.843,-0 -63.35,17.421 -114.03,72.852c-82.355,88.69 -134.619,117.197 -218.557,117.197c-140.954,0 -237.562,-85.522 -335.755,-296.161c-66.517,-139.369 -114.03,-188.466 -131.451,-131.451c-14.254,42.762 28.508,166.294 95.025,275.573c45.929,77.603 49.096,85.522 19.005,69.684c-83.939,-44.345 -107.695,-64.933 -88.69,-77.603c15.838,-9.503 15.838,-20.589 1.584,-52.264c-14.254,-33.259 -30.091,-41.177 -74.436,-41.177c-52.264,-0 -55.431,-1.584 -45.929,-44.345c4.751,-23.757 26.924,-72.853 49.096,-110.863c22.173,-38.01 36.426,-69.685 33.259,-71.268c-1.584,-1.584 -20.589,-15.838 -39.594,-33.259c-34.842,-28.507 -34.842,-28.507 -80.771,63.35l-47.512,93.441l-26.924,-63.35c-41.178,-99.776 -71.269,-229.643 -71.269,-308.831l1.584,-71.268l34.842,47.512c19.005,25.34 63.35,79.187 98.193,117.197Z" style="fill:#ec4e20;fill-rule:nonzero;"/><path d="M539.668,370.966c-25.34,57.015 -25.34,57.015 33.259,57.015c26.924,-0 93.441,11.086 145.705,22.172c88.69,22.173 96.608,20.589 140.953,-11.086l47.513,-33.259l-93.441,-28.507c-50.68,-15.838 -128.284,-33.259 -174.213,-38.01c-76.02,-9.503 -80.771,-7.919 -99.776,31.675Z" style="fill:#ec4e20;fill-rule:nonzero;"/><path d="M1219.1,413.727c-25.34,9.503 -33.259,22.172 -25.34,42.761c50.68,133.035 72.853,448.201 41.178,597.073c-7.919,34.843 -19.005,87.106 -25.34,114.03c-11.087,50.68 -9.503,52.264 36.426,52.264c53.847,-0 53.847,-1.584 83.938,-155.208c23.757,-129.867 9.503,-456.119 -26.923,-578.068c-14.254,-49.096 -31.675,-90.273 -36.426,-88.689c-4.752,-0 -26.924,7.918 -47.513,15.837Z" style="fill:#ec4e20;fill-rule:nonzero;"/><path d="M1032.21,510.336c-20.589,9.502 -36.426,22.172 -36.426,26.923c-0,4.752 50.68,36.427 110.862,69.685l110.862,58.599l-9.502,-50.68c-11.086,-58.599 -72.853,-123.532 -114.03,-121.949c-14.254,0 -42.761,7.919 -61.766,17.422Z" style="fill:#ec4e20;fill-rule:nonzero;"/><path d="M1090.81,831.837c-64.934,66.517 -166.294,158.374 -224.893,202.719c-60.182,44.345 -107.695,87.106 -107.695,91.858c0,6.335 22.173,19.005 47.513,28.507c45.929,15.838 55.431,9.503 186.882,-99.776c209.055,-175.796 228.06,-199.552 221.725,-277.156l-4.751,-66.517l-118.781,120.365Z" style="fill:#ec4e20;fill-rule:nonzero;"/><path d="M541.252,1245.19c-14.254,6.335 -14.254,17.421 -1.584,47.512c20.589,44.345 30.091,45.929 95.025,12.67c47.513,-25.34 49.096,-26.924 20.589,-47.512c-30.091,-22.173 -77.604,-26.924 -114.03,-12.67Z" style="fill:#ec4e20;fill-rule:nonzero;"/></svg>