<?xml version="1.0" encoding="UTF-8" standalone="no"?><!DOCTYPE svg PUBLIC "-//W3C//DTD SVG 1.1//EN" "http://www.w3.org/Graphics/SVG/1.1/DTD/svg11.dtd"><svg width="100%" height="100%" viewBox="0 0 6667 1875" version="1.1" xmlns="http://www.w3.org/2000/svg" xmlns:xlink="http://www.w3.org/1999/xlink" xml:space="preserve" xmlns:serif="http://www.serif.com/" style="fill-rule:evenodd;clip-rule:evenodd;stroke-linejoin:round;stroke-miterlimit:2;"><g><path d="M846.867,133.019c-149.871,36.284 -296.586,123.051 -410.172,242.948c-110.431,116.741 -170.379,228.749 -206.664,381.775c-96.232,407.017 135.672,825.076 536.379,967.059c135.672,47.328 362.844,53.638 498.516,14.198c285.543,-83.612 515.87,-323.404 582.129,-605.792c67.836,-288.698 -28.397,-604.215 -242.948,-801.413c-208.241,-189.31 -490.629,-263.456 -757.24,-198.775Zm301.318,102.543c37.862,18.931 91.5,61.525 119.897,96.232c41.017,52.061 55.215,59.948 89.922,52.061c53.638,-14.199 55.215,-17.354 25.241,-63.104c-33.129,-50.483 -23.664,-48.905 55.216,3.155l64.681,42.595l-61.526,17.354c-88.345,26.818 -249.259,112.008 -383.353,203.508c-64.681,44.172 -135.672,83.612 -157.759,88.345c-20.508,4.732 -48.905,28.396 -63.103,53.637c-12.621,25.242 -47.327,67.837 -74.146,93.078c-28.397,25.241 -80.457,78.879 -115.164,121.474l-63.103,75.724l37.862,25.241c37.862,23.664 41.017,22.086 151.448,-91.5c70.991,-72.568 129.362,-119.896 157.758,-124.629c28.397,-6.31 48.905,-23.663 56.793,-45.75c12.621,-41.017 20.509,-48.905 171.957,-149.87c130.939,-88.345 282.387,-157.759 369.154,-171.957c58.371,-9.465 64.681,-6.31 64.681,22.086c0,17.354 -11.043,56.793 -23.663,88.345c-23.664,56.793 -18.931,167.224 7.888,167.224c6.31,-0 31.551,-37.862 55.215,-82.034l45.75,-83.612l39.44,86.767c29.974,67.836 39.439,116.741 42.594,220.862c1.578,74.146 0,112.008 -4.732,86.767c-7.888,-50.483 -45.75,-102.543 -74.147,-102.543c-7.888,-0 -36.284,-18.931 -59.948,-42.595l-44.172,-42.595l-0,63.104c-0,99.387 26.819,173.534 70.991,192.465c25.241,11.043 44.172,39.439 55.215,80.457c28.397,107.275 -18.931,176.689 -151.448,216.129c-97.81,28.396 -263.456,28.396 -320.249,-1.578c-25.242,-12.621 -69.414,-22.086 -97.811,-20.509c-75.724,1.578 -293.43,-86.767 -427.525,-175.111c-200.353,-130.94 -343.913,-307.629 -343.913,-424.371c-0,-63.103 50.483,-121.474 130.939,-153.025c50.483,-18.931 72.569,-37.862 86.767,-74.147l17.354,-47.327l-55.216,7.888c-69.413,11.043 -59.948,-4.733 59.949,-93.078c96.232,-70.991 146.715,-91.5 104.12,-42.594c-33.129,37.862 -97.81,170.379 -123.051,249.258c-11.043,34.707 -34.707,78.879 -52.061,99.388c-28.396,31.551 -31.551,42.594 -15.776,83.612c11.044,26.818 14.199,82.034 9.466,126.206c-11.043,94.655 14.198,140.405 58.371,100.966c15.775,-14.199 31.551,-55.216 36.284,-91.5c4.733,-36.285 20.509,-89.922 34.707,-116.741c17.353,-36.285 20.508,-59.949 11.043,-78.88c-15.776,-26.819 15.776,-140.405 66.259,-239.792c64.68,-124.63 209.818,-236.638 307.628,-238.216c22.087,0 69.414,14.199 107.276,33.13Zm-713.068,801.412c115.164,126.207 354.957,274.5 552.155,340.759c44.172,14.198 94.655,41.017 113.586,58.37c25.241,23.664 47.327,29.974 78.879,23.664c23.664,-6.31 124.629,-12.621 224.017,-14.198l178.267,-4.733l-63.104,55.215c-34.706,29.974 -85.189,69.414 -115.163,85.19l-52.061,29.974l34.707,-55.215c44.173,-70.992 44.173,-75.724 -12.62,-75.724c-34.707,-0 -63.104,17.353 -113.586,72.568c-82.035,88.345 -134.095,116.742 -217.707,116.742c-140.405,-0 -236.638,-85.19 -334.448,-295.009c-66.258,-138.827 -113.586,-187.732 -130.939,-130.939c-14.199,42.595 28.396,165.646 94.655,274.5c45.75,77.301 48.905,85.189 18.931,69.413c-83.612,-44.172 -107.276,-64.681 -88.345,-77.301c15.776,-9.466 15.776,-20.509 1.578,-52.061c-14.199,-33.129 -29.974,-41.017 -74.147,-41.017c-52.06,0 -55.215,-1.577 -45.75,-44.172c4.733,-23.664 26.819,-72.569 48.905,-110.431c22.086,-37.862 36.285,-69.414 33.13,-70.991c-1.578,-1.578 -20.509,-15.776 -39.44,-33.13c-34.707,-28.396 -34.707,-28.396 -80.457,63.104l-47.327,93.077l-26.819,-63.103c-41.017,-99.388 -70.992,-228.75 -70.992,-307.629l1.578,-70.991l34.707,47.327c18.931,25.242 63.103,78.879 97.81,116.741Z" style="fill:#0d1b2a;fill-rule:nonzero;"/><path d="M745.901,476.932c-25.241,56.793 -25.241,56.793 33.129,56.793c26.819,0 93.078,11.043 145.138,22.086c88.345,22.086 96.233,20.509 140.405,-11.043l47.328,-33.129l-93.078,-28.397c-50.482,-15.775 -127.784,-33.129 -173.534,-37.862c-75.724,-9.465 -80.457,-7.888 -99.388,31.552Z" style="fill:#0d1b2a;fill-rule:nonzero;"/><path d="M1422.68,519.527c-25.242,9.465 -33.129,22.086 -25.242,42.595c50.483,132.517 72.569,446.456 41.018,594.749c-7.888,34.707 -18.931,86.767 -25.242,113.586c-11.043,50.483 -9.465,52.06 36.285,52.06c53.638,0 53.638,-1.577 83.612,-154.603c23.663,-129.362 9.465,-454.344 -26.819,-575.818c-14.199,-48.905 -31.552,-89.923 -36.285,-88.345c-4.732,-0 -26.819,7.888 -47.327,15.776Z" style="fill:#0d1b2a;fill-rule:nonzero;"/><path d="M1236.53,615.759c-20.509,9.466 -36.285,22.087 -36.285,26.819c0,4.733 50.483,36.285 110.431,69.414l110.431,58.371l-9.465,-50.483c-11.043,-58.371 -72.569,-123.052 -113.586,-121.474c-14.199,-0 -42.595,7.888 -61.526,17.353Z" style="fill:#0d1b2a;fill-rule:nonzero;"/><path d="M1294.9,936.009c-64.68,66.259 -165.646,157.758 -224.016,201.931c-59.949,44.172 -107.276,86.767 -107.276,91.5c-0,6.31 22.086,18.931 47.327,28.396c45.75,15.776 55.216,9.466 186.155,-99.388c208.241,-175.111 227.172,-198.775 220.862,-276.077l-4.733,-66.258l-118.319,119.896Z" style="fill:#0d1b2a;fill-rule:nonzero;"/><path d="M747.479,1347.76c-14.198,6.311 -14.198,17.354 -1.578,47.328c20.509,44.172 29.974,45.75 94.655,12.621c47.328,-25.242 48.905,-26.819 20.509,-47.328c-29.974,-22.086 -77.302,-26.819 -113.586,-12.621Z" style="fill:#0d1b2a;fill-rule:nonzero;"/><path d="M2288.78,423.294l0,154.603l265.035,6.311c212.973,3.155 272.922,9.465 313.939,31.551c102.543,56.793 102.543,219.285 -1.578,282.388c-42.595,26.819 -80.457,29.974 -312.361,29.974l-265.035,0l0,520.603l171.957,-0l4.733,-178.267l4.733,-176.69l220.861,-9.465l252.414,362.844l107.276,1.578l107.275,-0l-34.707,-52.06c-20.508,-26.819 -82.034,-113.586 -137.249,-190.888c-77.302,-107.276 -96.233,-143.56 -78.88,-153.026c11.044,-7.888 28.397,-14.198 39.44,-14.198c33.129,-0 115.164,-80.457 146.715,-143.56c64.681,-124.629 25.242,-318.672 -78.879,-392.819c-89.922,-64.681 -175.112,-78.879 -460.654,-78.879l-265.035,0Z" style="fill:#0d1b2a;fill-rule:nonzero;"/><path d="M3755.93,429.604c-0,9.466 249.258,703.603 317.094,880.292l53.638,138.828l195.62,-0l-29.974,-83.612c-17.353,-44.172 -100.965,-274.5 -187.732,-507.982l-154.603,-425.948l-97.811,-4.733c-52.06,-3.155 -96.232,-1.577 -96.232,3.155Z" style="fill:#0d1b2a;fill-rule:nonzero;"/><path d="M4880.75,446.958c-159.336,48.905 -263.456,140.405 -332.87,288.698c-33.129,75.724 -37.862,100.965 -31.552,220.862c11.043,216.129 93.078,343.913 280.81,440.146c82.035,41.017 99.388,44.172 328.138,48.905l239.793,6.31l-0,-302.896l-157.759,-0l0,141.982l-108.853,0c-249.258,0 -395.974,-127.784 -395.974,-347.068c0,-154.603 55.216,-253.991 181.422,-320.25c53.638,-28.396 96.233,-34.707 272.922,-39.439l208.242,-6.311l-0,-154.603l-208.242,1.578c-126.206,-0 -236.637,9.465 -276.077,22.086Z" style="fill:#0d1b2a;fill-rule:nonzero;"/><path d="M5985.06,456.423c-187.732,59.949 -321.827,225.595 -345.491,430.681l-11.043,88.345l189.31,-0l11.043,-82.035c14.199,-97.81 37.862,-148.293 105.698,-214.551c70.992,-69.414 176.69,-97.81 364.422,-97.81l154.604,-0l-0,-157.759l-184.578,1.578c-138.827,-0 -211.396,7.888 -283.965,31.551Z" style="fill:#0d1b2a;fill-rule:nonzero;"/><path d="M3492.47,1055.9l-159.336,394.396l97.81,-4.732l96.233,-4.733l108.853,-266.612l110.431,-266.612l-37.862,-104.12c-18.931,-56.793 -41.017,-113.586 -45.75,-123.052c-6.31,-11.043 -82.034,157.759 -170.379,375.465Z" style="fill:#0d1b2a;fill-rule:nonzero;"/><path d="M4989.6,939.164l4.732,75.724l186.155,4.733l184.578,4.733l-0,-159.336l-380.198,-0l4.733,74.146Z" style="fill:#0d1b2a;fill-rule:nonzero;"/><path d="M6264.29,962.828c0,56.793 -50.482,176.689 -91.499,222.439c-64.681,72.569 -145.138,94.655 -345.491,102.543l-194.043,6.311l-0,157.758l217.706,-6.31c194.043,-4.733 225.595,-9.466 304.474,-47.328c165.647,-75.724 276.077,-228.75 293.431,-402.284l9.465,-83.612l-194.043,0l0,50.483Z" style="fill:#0d1b2a;fill-rule:nonzero;"/></g></svg>